<svg width="661" height="341" viewBox="0 0 661 341" fill="none" xmlns="http://www.w3.org/2000/svg">
<g clip-path="url(#clip0_3_29)">
<path d="M64.2629 324.635L63.2991 324.263C63.0874 324.181 42.009 315.865 32.1349 297.01C22.2605 278.153 27.0956 255.45 27.1455 255.224L27.3731 254.19L28.3364 254.562C28.5482 254.644 49.6262 262.96 59.5006 281.815C69.3751 300.671 64.54 323.374 64.49 323.601L64.2629 324.635ZM33.7161 296.132C42.0642 312.074 58.721 320.246 62.9413 322.112C63.7437 317.454 66.2602 298.62 57.9195 282.693C49.5797 266.767 32.9163 258.583 28.6943 256.713C27.8914 261.373 25.3759 280.206 33.7161 296.132Z" fill="#3F3D56"/>
<path d="M39.681 290.395C57.4259 301.388 64.2601 323.223 64.2601 323.223C64.2601 323.223 42.324 327.235 24.5791 316.242C6.83412 305.249 -7.62939e-06 283.414 -7.62939e-06 283.414C-7.62939e-06 283.414 21.9361 279.402 39.681 290.395Z" fill="#D0CDE1"/>
<path d="M607.578 4.19951H409.702V0H319.978V4.19951H121.286C119.528 4.19951 117.788 4.556 116.164 5.24863C114.54 5.94126 113.064 6.95645 111.821 8.23626C110.578 9.51606 109.592 11.0354 108.92 12.7076C108.247 14.3797 107.901 16.1719 107.901 17.9818V296.981C107.901 300.636 109.311 304.142 111.821 306.727C114.331 309.311 117.736 310.764 121.286 310.764H607.578C609.336 310.764 611.077 310.407 612.701 309.714C614.324 309.022 615.8 308.007 617.043 306.727C618.286 305.447 619.272 303.928 619.944 302.255C620.617 300.583 620.963 298.791 620.963 296.981V17.9818C620.963 16.1719 620.617 14.3797 619.944 12.7075C619.272 11.0354 618.286 9.51605 617.043 8.23625C615.8 6.95644 614.324 5.94124 612.701 5.24862C611.077 4.55599 609.336 4.1995 607.578 4.19951Z" fill="#3F3D56"/>
<path d="M603.018 28.5567H125.846V305.724H603.018V28.5567Z" fill="#6C63FF"/>
<path d="M364.024 20.9975C366.727 20.9975 368.918 18.7413 368.918 15.9581C368.918 13.1749 366.727 10.9187 364.024 10.9187C361.321 10.9187 359.13 13.1749 359.13 15.9581C359.13 18.7413 361.321 20.9975 364.024 20.9975Z" fill="#6C63FF"/>
<path d="M575.625 63.8322H553.006V40.5413H575.625V63.8322ZM553.989 62.8196H574.642V41.554H553.989V62.8196Z" fill="#3F3D56"/>
<path d="M634.361 300.685H587.792V297.23C587.793 297.14 587.775 297.051 587.742 296.968C587.708 296.885 587.659 296.809 587.598 296.745C587.536 296.682 587.463 296.631 587.382 296.597C587.301 296.562 587.215 296.545 587.127 296.545H571.161C571.073 296.545 570.987 296.562 570.906 296.597C570.825 296.631 570.752 296.682 570.69 296.745C570.629 296.809 570.58 296.885 570.546 296.968C570.513 297.051 570.495 297.14 570.495 297.23V300.685H560.516V297.23C560.516 297.14 560.499 297.051 560.466 296.968C560.432 296.885 560.383 296.809 560.322 296.745C560.26 296.682 560.186 296.631 560.106 296.597C560.025 296.562 559.939 296.545 559.851 296.545H543.885C543.797 296.545 543.711 296.562 543.63 296.597C543.549 296.631 543.476 296.682 543.414 296.745C543.352 296.809 543.303 296.885 543.27 296.968C543.237 297.051 543.219 297.14 543.219 297.23V300.685H533.24V297.23C533.24 297.14 533.223 297.051 533.19 296.968C533.156 296.885 533.107 296.809 533.045 296.745C532.984 296.682 532.91 296.631 532.83 296.597C532.749 296.562 532.662 296.545 532.575 296.545H516.609C516.521 296.545 516.435 296.562 516.354 296.597C516.273 296.631 516.2 296.682 516.138 296.745C516.076 296.809 516.027 296.885 515.994 296.968C515.96 297.051 515.943 297.14 515.943 297.23V300.685H505.964V297.23C505.964 297.14 505.947 297.051 505.914 296.968C505.88 296.885 505.831 296.809 505.769 296.745C505.708 296.682 505.634 296.631 505.554 296.597C505.473 296.562 505.386 296.545 505.299 296.545H489.332C489.245 296.545 489.159 296.562 489.078 296.597C488.997 296.631 488.924 296.682 488.862 296.745C488.8 296.809 488.751 296.885 488.718 296.968C488.684 297.051 488.667 297.14 488.667 297.23V300.685H478.688V297.23C478.688 297.14 478.671 297.051 478.637 296.968C478.604 296.885 478.555 296.809 478.493 296.745C478.432 296.682 478.358 296.631 478.277 296.597C478.197 296.562 478.11 296.545 478.023 296.545H462.056C461.969 296.545 461.882 296.562 461.802 296.597C461.721 296.631 461.648 296.682 461.586 296.745C461.524 296.809 461.475 296.885 461.442 296.968C461.408 297.051 461.391 297.14 461.391 297.23V300.685H451.412V297.23C451.412 297.14 451.395 297.051 451.361 296.968C451.328 296.885 451.279 296.809 451.217 296.745C451.155 296.682 451.082 296.631 451.001 296.597C450.921 296.562 450.834 296.545 450.747 296.545H434.78C434.693 296.545 434.606 296.562 434.526 296.597C434.445 296.631 434.372 296.682 434.31 296.745C434.248 296.809 434.199 296.885 434.166 296.968C434.132 297.051 434.115 297.14 434.115 297.23V300.685H424.136V297.23C424.136 297.14 424.119 297.051 424.085 296.968C424.052 296.885 424.003 296.809 423.941 296.745C423.879 296.682 423.806 296.631 423.725 296.597C423.645 296.562 423.558 296.545 423.471 296.545H298.4C298.312 296.545 298.226 296.562 298.145 296.597C298.064 296.631 297.991 296.682 297.929 296.745C297.868 296.809 297.819 296.885 297.785 296.968C297.752 297.051 297.735 297.14 297.735 297.23V300.685H287.755V297.23C287.755 297.14 287.738 297.051 287.705 296.968C287.671 296.885 287.622 296.809 287.561 296.745C287.499 296.682 287.425 296.631 287.345 296.597C287.264 296.562 287.178 296.545 287.09 296.545H271.124C271.036 296.545 270.95 296.562 270.869 296.597C270.788 296.631 270.715 296.682 270.653 296.745C270.591 296.809 270.542 296.885 270.509 296.968C270.476 297.051 270.458 297.14 270.458 297.23V300.685H260.479V297.23C260.479 297.14 260.462 297.051 260.429 296.968C260.395 296.885 260.346 296.809 260.285 296.745C260.223 296.682 260.149 296.631 260.069 296.597C259.988 296.562 259.901 296.545 259.814 296.545H243.848C243.76 296.545 243.674 296.562 243.593 296.597C243.512 296.631 243.439 296.682 243.377 296.745C243.315 296.809 243.266 296.885 243.233 296.968C243.2 297.051 243.182 297.14 243.182 297.23V300.685H233.203V297.23C233.203 297.14 233.186 297.051 233.153 296.968C233.119 296.885 233.07 296.809 233.008 296.745C232.947 296.682 232.873 296.631 232.793 296.597C232.712 296.562 232.625 296.545 232.538 296.545H216.571C216.484 296.545 216.398 296.562 216.317 296.597C216.236 296.631 216.163 296.682 216.101 296.745C216.039 296.809 215.99 296.885 215.957 296.968C215.923 297.051 215.906 297.14 215.906 297.23V300.685H205.927V297.23C205.927 297.14 205.91 297.051 205.877 296.968C205.843 296.885 205.794 296.809 205.732 296.745C205.671 296.682 205.597 296.631 205.516 296.597C205.436 296.562 205.349 296.545 205.262 296.545H189.295C189.208 296.545 189.122 296.562 189.041 296.597C188.96 296.631 188.887 296.682 188.825 296.745C188.763 296.809 188.714 296.885 188.681 296.968C188.647 297.051 188.63 297.14 188.63 297.23V300.685H178.651V297.23C178.651 297.14 178.634 297.051 178.6 296.968C178.567 296.885 178.518 296.809 178.456 296.745C178.394 296.682 178.321 296.631 178.24 296.597C178.16 296.562 178.073 296.545 177.986 296.545H162.019C161.932 296.545 161.845 296.562 161.765 296.597C161.684 296.631 161.611 296.682 161.549 296.745C161.487 296.809 161.438 296.885 161.405 296.968C161.371 297.051 161.354 297.14 161.354 297.23V300.685H151.375V297.23C151.375 297.14 151.358 297.051 151.324 296.968C151.291 296.885 151.242 296.809 151.18 296.745C151.118 296.682 151.045 296.631 150.964 296.597C150.884 296.562 150.797 296.545 150.71 296.545H134.743C134.656 296.545 134.569 296.562 134.489 296.597C134.408 296.631 134.335 296.682 134.273 296.745C134.211 296.809 134.162 296.885 134.129 296.968C134.095 297.051 134.078 297.14 134.078 297.23V300.685H103.475C99.2409 300.685 95.1798 302.417 92.1855 305.5C89.1912 308.583 87.509 312.765 87.509 317.125V324.559C87.509 328.92 89.1912 333.101 92.1855 336.185C95.1798 339.268 99.2409 341 103.475 341H634.361C638.596 341 642.657 339.268 645.652 336.185C648.646 333.101 650.328 328.92 650.328 324.559V317.125C650.328 312.765 648.646 308.583 645.652 305.5C642.657 302.417 638.596 300.685 634.361 300.685Z" fill="#3F3D56"/>
<path d="M716 324.133H21.8369V326.315H716V324.133Z" fill="#3F3D56"/>
<path d="M573.521 183H419.887V92.9371H573.521V183ZM421.408 181.433H572V94.5034H421.408V181.433Z" fill="#3F3D56"/>
<path d="M292.112 201.012H155.21V113.299H292.112V201.012ZM156.731 199.446H290.591V114.865H156.731V199.446Z" fill="#3F3D56"/>
<path d="M219.169 167.337L219.038 165.585C218.646 161.949 219.823 157.975 223.093 153.934C226.037 150.364 227.672 147.738 227.672 144.707C227.672 141.272 225.579 138.982 221.458 138.915C219.102 138.905 216.798 139.633 214.852 141.003L213.282 136.76C215.441 135.143 219.169 134.066 222.635 134.066C230.158 134.066 233.559 138.848 233.559 143.966C233.559 148.546 231.073 151.846 227.933 155.685C225.056 159.187 224.009 162.15 224.205 165.585L224.271 167.336L219.169 167.337ZM217.73 176.766C217.695 176.216 217.771 175.665 217.953 175.147C218.135 174.63 218.42 174.157 218.788 173.758C219.157 173.359 219.602 173.043 220.096 172.831C220.589 172.618 221.12 172.513 221.654 172.523C223.944 172.523 225.514 174.273 225.514 176.766C225.535 177.306 225.451 177.845 225.265 178.35C225.079 178.856 224.796 179.318 224.432 179.708C224.069 180.098 223.632 180.408 223.149 180.62C222.666 180.832 222.147 180.942 221.622 180.942C221.097 180.942 220.577 180.832 220.094 180.62C219.611 180.408 219.175 180.098 218.811 179.708C218.448 179.318 218.165 178.856 217.979 178.35C217.793 177.845 217.708 177.306 217.73 176.766Z" fill="#D0CDE1"/>
<path d="M492.212 147.758L492.081 146.006C491.689 142.37 492.866 138.396 496.137 134.355C499.08 130.785 500.715 128.159 500.715 125.128C500.715 121.693 498.622 119.404 494.501 119.336C492.145 119.327 489.841 120.055 487.895 121.424L486.325 117.181C488.484 115.564 492.212 114.487 495.679 114.487C503.201 114.487 506.602 119.269 506.602 124.387C506.602 128.967 504.116 132.268 500.977 136.106C498.099 139.608 497.052 142.572 497.248 146.006L497.314 147.758L492.212 147.758ZM490.773 157.187C490.738 156.637 490.814 156.086 490.996 155.569C491.178 155.051 491.463 154.578 491.832 154.179C492.2 153.78 492.645 153.465 493.139 153.252C493.632 153.039 494.163 152.934 494.698 152.944C496.987 152.944 498.557 154.694 498.557 157.187C498.579 157.727 498.494 158.266 498.308 158.772C498.122 159.277 497.839 159.739 497.475 160.129C497.112 160.519 496.676 160.829 496.193 161.042C495.71 161.254 495.19 161.363 494.665 161.363C494.14 161.363 493.62 161.254 493.138 161.042C492.655 160.829 492.218 160.519 491.855 160.129C491.491 159.739 491.208 159.277 491.022 158.772C490.836 158.266 490.752 157.727 490.773 157.187Z" fill="#D0CDE1"/>
<path d="M367.12 271.864C403.367 271.864 432.751 241.607 432.751 204.284C432.751 166.961 403.367 136.704 367.12 136.704C330.873 136.704 301.489 166.961 301.489 204.284C301.489 241.607 330.873 271.864 367.12 271.864Z" fill="#2F2E41"/>
<path d="M341.772 296.828L322.151 293.171L328.515 250.987L348.135 254.645L341.772 296.828Z" fill="#2F2E41"/>
<path d="M387.374 261.959L367.755 258.302L361.391 294.497L381.011 298.155L387.374 261.959Z" fill="#2F2E41"/>
<path d="M394.124 300.126C394.805 296.653 388.065 292.322 379.07 290.452C370.075 288.582 362.231 289.882 361.55 293.355C360.869 296.829 367.609 301.16 376.604 303.03C385.599 304.9 393.443 303.6 394.124 300.126Z" fill="#2F2E41"/>
<path d="M353.26 299.036C353.712 295.523 346.704 291.669 337.607 290.428C328.51 289.188 320.769 291.029 320.317 294.542C319.865 298.055 326.873 301.908 335.97 303.149C345.067 304.39 352.808 302.548 353.26 299.036Z" fill="#2F2E41"/>
<path d="M371.715 210.851C384.103 210.851 394.146 200.51 394.146 187.754C394.146 174.998 384.103 164.657 371.715 164.657C359.327 164.657 349.284 174.998 349.284 187.754C349.284 200.51 359.327 210.851 371.715 210.851Z" fill="white"/>
<path d="M380.934 187.174C385.063 187.174 388.411 183.727 388.411 179.475C388.411 175.223 385.063 171.776 380.934 171.776C376.804 171.776 373.457 175.223 373.457 179.475C373.457 183.727 376.804 187.174 380.934 187.174Z" fill="#3F3D56"/>
<path d="M315.346 130.764C314.359 105.745 335.3 84.5539 362.119 83.4322C388.938 82.3104 411.48 101.683 412.467 126.702C413.454 151.721 394.811 157.406 367.992 158.528C341.173 159.649 316.333 155.783 315.346 130.764Z" fill="white"/>
<path d="M430.023 202.312C447.688 198.142 460.978 190.133 459.707 184.423C458.436 178.712 443.085 177.463 425.419 181.633C407.754 185.802 394.464 193.811 395.735 199.522C397.006 205.232 412.357 206.481 430.023 202.312Z" fill="#2F2E41"/>
<path d="M301.192 224.372C318.857 220.203 332.147 212.194 330.876 206.483C329.605 200.773 314.254 199.524 296.588 203.693C278.923 207.863 265.633 215.872 266.904 221.582C268.175 227.293 283.526 228.542 301.192 224.372Z" fill="#2F2E41"/>
<path d="M349.094 230.916C348.745 232.906 348.779 234.947 349.195 236.924C349.611 238.9 350.402 240.772 351.521 242.434C352.64 244.095 354.066 245.514 355.717 246.608C357.368 247.702 359.213 248.451 361.145 248.811C363.078 249.171 365.06 249.136 366.979 248.707C368.898 248.279 370.717 247.465 372.33 246.313C373.944 245.16 375.322 243.692 376.384 241.992C377.447 240.291 378.174 238.392 378.524 236.402C379.995 228.034 373.712 225.073 365.585 223.558C357.458 222.043 350.566 222.548 349.094 230.916Z" fill="white"/>
<path d="M225.448 10.2767H117.534V115.977H225.448V10.2767Z" fill="#D0CDE1"/>
<path d="M213.185 22.9039H129.797V88.5651H213.185V22.9039Z" fill="white"/>
<path d="M175.072 96.3115H129.714V98.7696H175.072V96.3115Z" fill="#F2F2F2"/>
<path d="M175.072 103.686H129.714V106.144H175.072V103.686Z" fill="#F2F2F2"/>
<path d="M144.635 65.5848C149.908 65.5848 154.184 61.1826 154.184 55.7522C154.184 50.3219 149.908 45.9197 144.635 45.9197C139.361 45.9197 135.086 50.3219 135.086 55.7522C135.086 61.1826 139.361 65.5848 144.635 65.5848Z" fill="#3F3D56"/>
<path d="M171.491 65.5848C176.765 65.5848 181.04 61.1826 181.04 55.7522C181.04 50.3219 176.765 45.9197 171.491 45.9197C166.217 45.9197 161.942 50.3219 161.942 55.7522C161.942 61.1826 166.217 65.5848 171.491 65.5848Z" fill="#6C63FF"/>
<path d="M198.348 65.5848C203.621 65.5848 207.897 61.1826 207.897 55.7522C207.897 50.3219 203.621 45.9197 198.348 45.9197C193.074 45.9197 188.799 50.3219 188.799 55.7522C188.799 61.1826 193.074 65.5848 198.348 65.5848Z" fill="#E6E6E6"/>
<path d="M171.491 21.3383C174.128 21.3383 176.266 19.1372 176.266 16.4221C176.266 13.7069 174.128 11.5058 171.491 11.5058C168.854 11.5058 166.717 13.7069 166.717 16.4221C166.717 19.1372 168.854 21.3383 171.491 21.3383Z" fill="#3F3D56"/>
<path d="M276.777 214.943H168.863V320.643H276.777V214.943Z" fill="#D0CDE1"/>
<path d="M264.514 227.57H181.126V293.231H264.514V227.57Z" fill="white"/>
<path d="M228.709 238.361H199.475V268.463H228.709V238.361Z" fill="#6C63FF"/>
<path d="M210.666 245.888V282.441H246.164V245.888H210.666ZM244.625 280.855H212.206V247.474H244.625V280.855Z" fill="#3F3D56"/>
<path d="M226.401 299.749H181.043V302.207H226.401V299.749Z" fill="#F2F2F2"/>
<path d="M222.82 226.004C225.457 226.004 227.594 223.803 227.594 221.088C227.594 218.373 225.457 216.172 222.82 216.172C220.183 216.172 218.045 218.373 218.045 221.088C218.045 223.803 220.183 226.004 222.82 226.004Z" fill="#3F3D56"/>
<path d="M557.741 183.299H449.827V288.999H557.741V183.299Z" fill="#D0CDE1"/>
<path d="M545.478 195.926H462.089V261.587H545.478V195.926Z" fill="white"/>
<path d="M512.753 247.329H494.814V252.803H512.753V247.329Z" fill="#3F3D56"/>
<path d="M534.441 204.71H473.127V207.056H534.441V204.71Z" fill="#3F3D56"/>
<path d="M534.441 212.139H473.127V214.485H534.441V212.139Z" fill="#3F3D56"/>
<path d="M534.441 219.568H473.127V221.914H534.441V219.568Z" fill="#3F3D56"/>
<path d="M534.441 226.997H473.127V229.343H534.441V226.997Z" fill="#3F3D56"/>
<path d="M534.441 234.426H473.127V236.772H534.441V234.426Z" fill="#3F3D56"/>
<path d="M507.365 268.104H462.007V270.563H507.365V268.104Z" fill="#F2F2F2"/>
<path d="M525.269 274.25H462.007V276.708H525.269V274.25Z" fill="#F2F2F2"/>
<path d="M503.784 194.36C506.421 194.36 508.558 192.159 508.558 189.444C508.558 186.729 506.421 184.528 503.784 184.528C501.147 184.528 499.009 186.729 499.009 189.444C499.009 192.159 501.147 194.36 503.784 194.36Z" fill="#3F3D56"/>
</g>
<defs>
<clipPath id="clip0_3_29">
<rect width="716" height="341" fill="white"/>
</clipPath>
</defs>
</svg>
