<svg width="45" height="45" viewBox="0 0 75 75" fill="none" xmlns="http://www.w3.org/2000/svg">
<circle cx="37.5" cy="37.5" r="37.5" fill="#6C63FF"/>
<path d="M34.04 23.08V42.68C34.04 45.4 33.2533 47.52 31.68 49.04C30.1067 50.5333 28 51.28 25.36 51.28C22.6933 51.28 20.5333 50.5067 18.88 48.96C17.2533 47.4133 16.44 45.2533 16.44 42.48H22.04C22.0667 43.68 22.3467 44.6133 22.88 45.28C23.44 45.9467 24.24 46.28 25.28 46.28C26.2933 46.28 27.0667 45.96 27.6 45.32C28.1333 44.68 28.4 43.8 28.4 42.68V23.08H34.04ZM60.9325 31.72C60.9325 33.2133 60.5725 34.6133 59.8525 35.92C59.1592 37.2267 58.0525 38.28 56.5325 39.08C55.0392 39.88 53.1458 40.28 50.8525 40.28H46.1725V51H40.5725V23.08H50.8525C53.0125 23.08 54.8525 23.4533 56.3725 24.2C57.8925 24.9467 59.0258 25.9733 59.7725 27.28C60.5458 28.5867 60.9325 30.0667 60.9325 31.72ZM50.6125 35.76C52.1592 35.76 53.3058 35.4133 54.0525 34.72C54.7992 34 55.1725 33 55.1725 31.72C55.1725 29 53.6525 27.64 50.6125 27.64H46.1725V35.76H50.6125Z" fill="white"/>
</svg>
