<svg width="45" height="45" viewBox="0 0 45 45" fill="none" xmlns="http://www.w3.org/2000/svg">
<circle cx="22.5" cy="22.5" r="22.5" fill="#795DDD"/>
<path d="M25.7647 11C27.3333 11 28.8431 11.2941 30.2353 11.8431C30.8039 12.0784 31.1569 12.6275 31.1569 13.2157C31.1569 13.8235 30.7843 14.3725 30.2157 14.5882C27.1177 15.8039 23.8039 18.5882 23.8039 22.7647C23.8039 26.9412 27.1177 29.7255 30.2157 30.9412C30.7843 31.1569 31.1569 31.7059 31.1569 32.3137C31.1569 32.902 30.8039 33.451 30.2353 33.6863C28.8431 34.2353 27.3333 34.5294 25.7647 34.5294C18.9412 34.5294 14 29.5882 14 22.7647C14 15.9412 18.9412 11 25.7647 11Z" fill="white"/>
</svg>
